<svg width="397" height="397" viewBox="0 0 397 397" fill="none" xmlns="http://www.w3.org/2000/svg">
<rect width="397" height="397" rx="100" fill="#4338CA"/>
<path d="M204.616 76.1758L257.53 106.726L263.03 109.901V178.947L315.73 209.374L321.23 212.55V286.352L315.73 289.527L262.816 320.077L257.316 323.253L251.816 320.077L199.115 289.65L146.415 320.077L140.915 323.253L135.415 320.077L82.5 289.527L77 286.352V212.55L82.5 209.374L135.201 178.947V109.901L140.701 106.726L193.616 76.1758L199.116 73L204.616 76.1758ZM88 218.9V280.001L140.915 310.552L193.401 280.247V218.653L140.915 188.351L88 218.9ZM204.829 218.653V280.247L257.316 310.552L310.23 280.001V218.9L257.316 188.351L204.829 218.653ZM146.201 116.252V177.353L199.116 207.903L252.03 177.353V116.252L199.116 85.7021L146.201 116.252Z" fill="white"/>
</svg>