<svg width="1826" height="397" viewBox="0 0 1826 397" fill="none" xmlns="http://www.w3.org/2000/svg">
<path d="M492 293.027V102.311H567.52C580.393 102.311 590.929 104.916 599.129 110.125C607.418 115.246 613.546 121.824 617.513 129.859C621.569 137.894 623.597 146.193 623.597 154.758C623.597 165.265 621.084 174.183 616.058 181.511C611.121 188.839 604.376 193.784 595.823 196.344V189.722C607.814 192.46 616.896 198.155 623.068 206.807C629.328 215.46 632.458 225.305 632.458 236.342C632.458 247.643 630.298 257.532 625.978 266.009C621.657 274.485 615.221 281.107 606.668 285.875C598.204 290.643 587.711 293.027 575.191 293.027H492ZM524.271 262.963H571.223C576.778 262.963 581.759 261.859 586.168 259.652C590.577 257.356 594.015 254.177 596.484 250.116C599.041 245.966 600.32 241.066 600.32 235.415C600.32 230.294 599.218 225.702 597.013 221.641C594.809 217.579 591.591 214.357 587.358 211.973C583.126 209.5 578.056 208.264 572.149 208.264H524.271V262.963ZM524.271 178.465H567.123C571.708 178.465 575.808 177.582 579.423 175.816C583.038 174.05 585.904 171.445 588.02 168.002C590.136 164.559 591.194 160.32 591.194 155.288C591.194 148.666 589.078 143.147 584.845 138.732C580.613 134.318 574.706 132.11 567.123 132.11H524.271V178.465Z" fill="white"/>
<path d="M977.12 293.027V102.311H1008.99V182.571H1099.19V102.311H1130.94V293.027H1099.19V212.502H1008.99V293.027H977.12Z" fill="white"/>
<path d="M1173.66 128.27C1172 128.27 1170.66 126.926 1170.66 125.27V102C1170.66 100.343 1172 99 1173.66 99H1199.54C1201.19 99 1202.54 100.343 1202.54 102V125.27C1202.54 126.926 1201.19 128.27 1199.54 128.27H1173.66ZM1170.66 293.027V149.99H1202.54V293.027H1170.66Z" fill="white"/>
<path d="M1280.77 293.027L1228.93 149.99H1260.8L1296.78 253.692L1332.62 149.99H1364.62L1312.78 293.027H1280.77Z" fill="white"/>
<path d="M1545.44 293.027C1543.79 293.027 1542.44 291.684 1542.44 290.027V263.314C1542.44 261.657 1543.79 260.314 1545.44 260.314H1572.11C1573.77 260.314 1575.11 261.657 1575.11 263.314V290.027C1575.11 291.684 1573.77 293.027 1572.11 293.027H1545.44Z" fill="white"/>
<path d="M1623.13 128.27C1621.48 128.27 1620.13 126.926 1620.13 125.27V102C1620.13 100.343 1621.48 99 1623.13 99H1649.01C1650.66 99 1652.01 100.343 1652.01 102V125.27C1652.01 126.926 1650.66 128.27 1649.01 128.27H1623.13ZM1620.13 293.027V149.99H1652.01V293.027H1620.13Z" fill="white"/>
<path d="M1754.71 297C1740.43 297 1727.95 293.777 1717.28 287.332C1706.61 280.886 1698.33 272.013 1692.42 260.711C1686.6 249.321 1683.69 236.254 1683.69 221.508C1683.69 206.498 1686.69 193.342 1692.68 182.041C1698.68 170.739 1707.01 161.91 1717.68 155.552C1728.35 149.195 1740.69 146.017 1754.71 146.017C1769.08 146.017 1781.61 149.239 1792.27 155.685C1802.94 162.13 1811.23 171.048 1817.14 182.438C1823.05 193.74 1826 206.763 1826 221.508C1826 236.342 1823 249.454 1817.01 260.843C1811.1 272.145 1802.81 281.019 1792.14 287.464C1781.47 293.821 1769 297 1754.71 297ZM1754.71 267.068C1767.41 267.068 1776.84 262.83 1783.02 254.354C1789.19 245.878 1792.27 234.929 1792.27 221.508C1792.27 207.646 1789.14 196.609 1782.88 188.398C1776.62 180.098 1767.23 175.948 1754.71 175.948C1746.16 175.948 1739.11 177.891 1733.55 181.776C1728.08 185.573 1724.03 190.914 1721.38 197.801C1718.74 204.6 1717.42 212.502 1717.42 221.508C1717.42 235.371 1720.55 246.452 1726.81 254.751C1733.15 262.963 1742.46 267.068 1754.71 267.068Z" fill="white"/>
<path d="M685.721 287.597C696.655 293.866 709.352 297 723.812 297C737.567 297 750.131 293.424 761.506 286.272C772.968 279.12 781.432 269.099 786.899 256.208L755.422 246.672C752.336 253.294 747.927 258.371 742.196 261.903C736.553 265.346 729.808 267.068 721.96 267.068C709.792 267.068 700.534 263.095 694.186 255.148C689.2 248.908 686.172 240.652 685.102 230.382H756.876H772.88H788.486C789.721 213.253 787.825 198.375 782.799 185.749C777.773 173.123 770.058 163.367 759.654 156.48C749.338 149.504 736.773 146.017 721.96 146.017C707.941 146.017 695.597 149.195 684.928 155.552C674.259 161.91 665.927 170.872 659.931 182.438C653.935 193.916 650.937 207.47 650.937 223.098C650.937 237.578 653.979 250.381 660.063 261.506C666.235 272.631 674.788 281.328 685.721 287.597ZM756.134 206.278H685.881C687.339 198.019 690.108 191.308 694.186 186.146C700.534 178.023 710.233 173.962 723.283 173.962C734.833 173.962 743.298 177.538 748.676 184.69C752.497 189.77 754.983 196.966 756.134 206.278Z" fill="white"/>
<path d="M844.845 287.597C855.778 293.866 868.475 297 882.935 297C896.69 297 909.255 293.424 920.629 286.272C932.091 279.12 940.556 269.099 946.023 256.208L914.545 246.672C911.459 253.294 907.05 258.371 901.319 261.903C895.676 265.346 888.931 267.068 881.084 267.068C868.916 267.068 859.658 263.095 853.309 255.148C848.324 248.908 845.296 240.652 844.226 230.382H916H932.003H947.61C948.844 213.253 946.948 198.375 941.923 185.749C936.897 173.123 929.182 163.367 918.777 156.48C908.461 149.504 895.897 146.017 881.084 146.017C867.064 146.017 854.72 149.195 844.051 155.552C833.382 161.91 825.05 170.872 819.054 182.438C813.059 193.916 810.061 207.47 810.061 223.098C810.061 237.578 813.103 250.381 819.187 261.506C825.359 272.631 833.911 281.328 844.845 287.597ZM915.257 206.278H845.004C846.463 198.019 849.231 191.308 853.309 186.146C859.658 178.023 869.357 173.962 882.406 173.962C893.957 173.962 902.421 177.538 907.8 184.69C911.62 189.77 914.106 196.966 915.257 206.278Z" fill="white"/>
<path d="M1410.04 287.597C1420.98 293.866 1433.67 297 1448.13 297C1461.89 297 1474.45 293.424 1485.83 286.272C1497.29 279.12 1505.75 269.099 1511.22 256.208L1479.74 246.672C1476.66 253.294 1472.25 258.371 1466.52 261.903C1460.87 265.346 1454.13 267.068 1446.28 267.068C1434.11 267.068 1424.86 263.095 1418.51 255.148C1413.52 248.908 1410.49 240.652 1409.42 230.382H1481.2H1497.2H1512.81C1514.04 213.253 1512.15 198.375 1507.12 185.749C1502.09 173.123 1494.38 163.367 1483.98 156.48C1473.66 149.504 1461.09 146.017 1446.28 146.017C1432.26 146.017 1419.92 149.195 1409.25 155.552C1398.58 161.91 1390.25 170.872 1384.25 182.438C1378.26 193.916 1375.26 207.47 1375.26 223.098C1375.26 237.578 1378.3 250.381 1384.38 261.506C1390.56 272.631 1399.11 281.328 1410.04 287.597ZM1480.46 206.278H1410.2C1411.66 198.019 1414.43 191.308 1418.51 186.146C1424.86 178.023 1434.55 173.962 1447.6 173.962C1459.15 173.962 1467.62 177.538 1473 184.69C1476.82 189.77 1479.3 196.966 1480.46 206.278Z" fill="white"/>
<rect width="397" height="397" rx="100" fill="white"/>
<path d="M204.615 76.1758L257.529 106.726L263.029 109.901V178.946L315.73 209.374L321.23 212.55V286.352L315.73 289.527L262.816 320.077L257.316 323.253L251.816 320.077L199.115 289.65L146.415 320.077L140.915 323.253L135.415 320.077L82.5 289.527L77 286.352V212.55L82.5 209.374L135.2 178.948V109.901L140.7 106.726L193.615 76.1758L199.115 73L204.615 76.1758ZM88 218.9V280.001L140.915 310.552L193.401 280.247V218.653L140.915 188.351L88 218.9ZM204.829 218.653V280.247L257.316 310.552L310.23 280.001V218.9L257.316 188.351L204.829 218.653ZM146.2 116.252V177.353L199.115 207.903L252.029 177.353V116.252L199.115 85.7021L146.2 116.252Z" fill="#4338CA"/>
</svg>