<svg width="1826" height="991" viewBox="0 0 1826 991" fill="none" xmlns="http://www.w3.org/2000/svg">
<path d="M492 293.027V102.311H567.52C580.393 102.311 590.929 104.916 599.129 110.125C607.418 115.246 613.546 121.824 617.513 129.859C621.569 137.894 623.597 146.193 623.597 154.758C623.597 165.265 621.084 174.183 616.058 181.511C611.121 188.839 604.376 193.784 595.823 196.344V189.722C607.814 192.46 616.896 198.155 623.068 206.807C629.328 215.46 632.458 225.305 632.458 236.342C632.458 247.643 630.298 257.532 625.978 266.009C621.657 274.485 615.221 281.107 606.668 285.875C598.204 290.643 587.711 293.027 575.191 293.027H492ZM524.271 262.963H571.223C576.778 262.963 581.759 261.859 586.168 259.652C590.577 257.356 594.015 254.177 596.484 250.116C599.041 245.966 600.32 241.066 600.32 235.415C600.32 230.294 599.218 225.702 597.013 221.641C594.809 217.579 591.591 214.357 587.358 211.973C583.126 209.5 578.056 208.264 572.149 208.264H524.271V262.963ZM524.271 178.465H567.123C571.708 178.465 575.808 177.582 579.423 175.816C583.038 174.05 585.904 171.445 588.02 168.002C590.136 164.559 591.194 160.32 591.194 155.288C591.194 148.666 589.078 143.147 584.845 138.732C580.613 134.318 574.706 132.11 567.123 132.11H524.271V178.465Z" fill="#4338CA"/>
<path d="M977.12 293.027V102.311H1008.99V182.571H1099.19V102.311H1130.94V293.027H1099.19V212.502H1008.99V293.027H977.12Z" fill="#4338CA"/>
<path d="M1173.66 128.27C1172 128.27 1170.66 126.926 1170.66 125.27V102C1170.66 100.343 1172 99 1173.66 99H1199.54C1201.19 99 1202.54 100.343 1202.54 102V125.27C1202.54 126.926 1201.19 128.27 1199.54 128.27H1173.66ZM1170.66 293.027V149.99H1202.54V293.027H1170.66Z" fill="#4338CA"/>
<path d="M1280.77 293.027L1228.93 149.99H1260.8L1296.78 253.692L1332.62 149.99H1364.62L1312.78 293.027H1280.77Z" fill="#4338CA"/>
<path d="M1545.44 293.027C1543.79 293.027 1542.44 291.684 1542.44 290.027V263.314C1542.44 261.657 1543.79 260.314 1545.44 260.314H1572.11C1573.77 260.314 1575.11 261.657 1575.11 263.314V290.027C1575.11 291.684 1573.77 293.027 1572.11 293.027H1545.44Z" fill="#4338CA"/>
<path d="M1623.13 128.27C1621.48 128.27 1620.13 126.926 1620.13 125.27V102C1620.13 100.343 1621.48 99 1623.13 99H1649.01C1650.66 99 1652.01 100.343 1652.01 102V125.27C1652.01 126.926 1650.66 128.27 1649.01 128.27H1623.13ZM1620.13 293.027V149.99H1652.01V293.027H1620.13Z" fill="#4338CA"/>
<path d="M1754.71 297C1740.43 297 1727.95 293.777 1717.28 287.332C1706.61 280.886 1698.33 272.013 1692.42 260.711C1686.6 249.321 1683.69 236.254 1683.69 221.508C1683.69 206.498 1686.69 193.342 1692.68 182.041C1698.68 170.739 1707.01 161.91 1717.68 155.552C1728.35 149.195 1740.69 146.017 1754.71 146.017C1769.08 146.017 1781.61 149.239 1792.27 155.685C1802.94 162.13 1811.23 171.048 1817.14 182.438C1823.05 193.74 1826 206.763 1826 221.508C1826 236.342 1823 249.454 1817.01 260.843C1811.1 272.145 1802.81 281.019 1792.14 287.464C1781.47 293.821 1769 297 1754.71 297ZM1754.71 267.068C1767.41 267.068 1776.84 262.83 1783.02 254.354C1789.19 245.878 1792.27 234.929 1792.27 221.508C1792.27 207.646 1789.14 196.609 1782.88 188.398C1776.62 180.098 1767.23 175.948 1754.71 175.948C1746.16 175.948 1739.11 177.891 1733.55 181.776C1728.08 185.573 1724.03 190.914 1721.38 197.801C1718.74 204.6 1717.42 212.502 1717.42 221.508C1717.42 235.371 1720.55 246.452 1726.81 254.751C1733.15 262.963 1742.46 267.068 1754.71 267.068Z" fill="#4338CA"/>
<path d="M685.721 287.597C696.655 293.866 709.352 297 723.812 297C737.567 297 750.131 293.424 761.506 286.272C772.968 279.12 781.432 269.099 786.899 256.208L755.422 246.672C752.336 253.294 747.927 258.371 742.196 261.903C736.553 265.346 729.808 267.068 721.96 267.068C709.792 267.068 700.534 263.095 694.186 255.148C689.2 248.908 686.172 240.652 685.102 230.382H756.876H772.88H788.486C789.721 213.253 787.825 198.375 782.799 185.749C777.773 173.123 770.058 163.367 759.654 156.48C749.338 149.504 736.773 146.017 721.96 146.017C707.941 146.017 695.597 149.195 684.928 155.552C674.259 161.91 665.927 170.872 659.931 182.438C653.935 193.916 650.937 207.47 650.937 223.098C650.937 237.578 653.979 250.381 660.063 261.506C666.235 272.631 674.788 281.328 685.721 287.597ZM756.134 206.278H685.881C687.339 198.019 690.108 191.308 694.186 186.146C700.534 178.023 710.233 173.962 723.283 173.962C734.833 173.962 743.298 177.538 748.676 184.69C752.497 189.77 754.983 196.966 756.134 206.278Z" fill="#4338CA"/>
<path d="M844.845 287.597C855.778 293.866 868.475 297 882.935 297C896.69 297 909.255 293.424 920.629 286.272C932.091 279.12 940.556 269.099 946.023 256.208L914.545 246.672C911.459 253.294 907.05 258.371 901.319 261.903C895.676 265.346 888.931 267.068 881.084 267.068C868.916 267.068 859.658 263.095 853.309 255.148C848.324 248.908 845.296 240.652 844.226 230.382H916H932.003H947.61C948.844 213.253 946.948 198.375 941.923 185.749C936.897 173.123 929.182 163.367 918.777 156.48C908.461 149.504 895.897 146.017 881.084 146.017C867.064 146.017 854.72 149.195 844.051 155.552C833.382 161.91 825.05 170.872 819.054 182.438C813.059 193.916 810.061 207.47 810.061 223.098C810.061 237.578 813.103 250.381 819.187 261.506C825.359 272.631 833.911 281.328 844.845 287.597ZM915.257 206.278H845.004C846.463 198.019 849.231 191.308 853.309 186.146C859.658 178.023 869.357 173.962 882.406 173.962C893.957 173.962 902.421 177.538 907.8 184.69C911.62 189.77 914.106 196.966 915.257 206.278Z" fill="#4338CA"/>
<path d="M1410.04 287.597C1420.98 293.866 1433.67 297 1448.13 297C1461.89 297 1474.45 293.424 1485.83 286.272C1497.29 279.12 1505.75 269.099 1511.22 256.208L1479.74 246.672C1476.66 253.294 1472.25 258.371 1466.52 261.903C1460.87 265.346 1454.13 267.068 1446.28 267.068C1434.11 267.068 1424.86 263.095 1418.51 255.148C1413.52 248.908 1410.49 240.652 1409.42 230.382H1481.2H1497.2H1512.81C1514.04 213.253 1512.15 198.375 1507.12 185.749C1502.09 173.123 1494.38 163.367 1483.98 156.48C1473.66 149.504 1461.09 146.017 1446.28 146.017C1432.26 146.017 1419.92 149.195 1409.25 155.552C1398.58 161.91 1390.25 170.872 1384.25 182.438C1378.26 193.916 1375.26 207.47 1375.26 223.098C1375.26 237.578 1378.3 250.381 1384.38 261.506C1390.56 272.631 1399.11 281.328 1410.04 287.597ZM1480.46 206.278H1410.2C1411.66 198.019 1414.43 191.308 1418.51 186.146C1424.86 178.023 1434.55 173.962 1447.6 173.962C1459.15 173.962 1467.62 177.538 1473 184.69C1476.82 189.77 1479.3 196.966 1480.46 206.278Z" fill="#4338CA"/>
<rect width="397" height="397" rx="100" fill="#4338CA"/>
<path d="M204.616 76.1758L257.53 106.726L263.03 109.901V178.947L315.73 209.374L321.23 212.55V286.352L315.73 289.527L262.816 320.077L257.316 323.253L251.816 320.077L199.115 289.65L146.415 320.077L140.915 323.253L135.415 320.077L82.5 289.527L77 286.352V212.55L82.5 209.374L135.201 178.947V109.901L140.701 106.726L193.616 76.1758L199.116 73L204.616 76.1758ZM88 218.9V280.001L140.915 310.552L193.401 280.247V218.653L140.915 188.351L88 218.9ZM204.829 218.653V280.247L257.316 310.552L310.23 280.001V218.9L257.316 188.351L204.829 218.653ZM146.201 116.252V177.353L199.116 207.903L252.03 177.353V116.252L199.116 85.7021L146.201 116.252Z" fill="white"/>
<path d="M492 887.027V696.311H567.52C580.393 696.311 590.929 698.916 599.129 704.125C607.418 709.246 613.546 715.824 617.513 723.859C621.569 731.894 623.597 740.193 623.597 748.758C623.597 759.265 621.084 768.183 616.058 775.511C611.121 782.839 604.376 787.784 595.823 790.344V783.722C607.814 786.46 616.896 792.155 623.068 800.807C629.328 809.46 632.458 819.305 632.458 830.342C632.458 841.643 630.298 851.532 625.978 860.009C621.657 868.485 615.221 875.107 606.668 879.875C598.204 884.643 587.711 887.027 575.191 887.027H492ZM524.271 856.963H571.223C576.778 856.963 581.759 855.859 586.168 853.652C590.577 851.356 594.015 848.177 596.484 844.116C599.041 839.966 600.32 835.066 600.32 829.415C600.32 824.294 599.218 819.702 597.013 815.641C594.809 811.579 591.591 808.357 587.358 805.973C583.126 803.5 578.056 802.264 572.149 802.264H524.271V856.963ZM524.271 772.465H567.123C571.708 772.465 575.808 771.582 579.423 769.816C583.038 768.05 585.904 765.445 588.02 762.002C590.136 758.559 591.194 754.32 591.194 749.288C591.194 742.666 589.078 737.147 584.845 732.732C580.613 728.318 574.706 726.11 567.123 726.11H524.271V772.465Z" fill="white"/>
<path d="M977.12 887.027V696.311H1008.99V776.571H1099.19V696.311H1130.94V887.027H1099.19V806.502H1008.99V887.027H977.12Z" fill="white"/>
<path d="M1173.66 722.27C1172 722.27 1170.66 720.926 1170.66 719.27V696C1170.66 694.343 1172 693 1173.66 693H1199.54C1201.19 693 1202.54 694.343 1202.54 696V719.27C1202.54 720.926 1201.19 722.27 1199.54 722.27H1173.66ZM1170.66 887.027V743.99H1202.54V887.027H1170.66Z" fill="white"/>
<path d="M1280.77 887.027L1228.93 743.99H1260.8L1296.78 847.692L1332.62 743.99H1364.62L1312.78 887.027H1280.77Z" fill="white"/>
<path d="M1545.44 887.027C1543.79 887.027 1542.44 885.684 1542.44 884.027V857.314C1542.44 855.657 1543.79 854.314 1545.44 854.314H1572.11C1573.77 854.314 1575.11 855.657 1575.11 857.314V884.027C1575.11 885.684 1573.77 887.027 1572.11 887.027H1545.44Z" fill="white"/>
<path d="M1623.13 722.27C1621.48 722.27 1620.13 720.926 1620.13 719.27V696C1620.13 694.343 1621.48 693 1623.13 693H1649.01C1650.66 693 1652.01 694.343 1652.01 696V719.27C1652.01 720.926 1650.66 722.27 1649.01 722.27H1623.13ZM1620.13 887.027V743.99H1652.01V887.027H1620.13Z" fill="white"/>
<path d="M1754.71 891C1740.43 891 1727.95 887.777 1717.28 881.332C1706.61 874.886 1698.33 866.013 1692.42 854.711C1686.6 843.321 1683.69 830.254 1683.69 815.508C1683.69 800.498 1686.69 787.342 1692.68 776.041C1698.68 764.739 1707.01 755.91 1717.68 749.552C1728.35 743.195 1740.69 740.017 1754.71 740.017C1769.08 740.017 1781.61 743.239 1792.27 749.685C1802.94 756.13 1811.23 765.048 1817.14 776.438C1823.05 787.74 1826 800.763 1826 815.508C1826 830.342 1823 843.454 1817.01 854.843C1811.1 866.145 1802.81 875.019 1792.14 881.464C1781.47 887.821 1769 891 1754.71 891ZM1754.71 861.068C1767.41 861.068 1776.84 856.83 1783.02 848.354C1789.19 839.878 1792.27 828.929 1792.27 815.508C1792.27 801.646 1789.14 790.609 1782.88 782.398C1776.62 774.098 1767.23 769.948 1754.71 769.948C1746.16 769.948 1739.11 771.891 1733.55 775.776C1728.08 779.573 1724.03 784.914 1721.38 791.801C1718.74 798.6 1717.42 806.502 1717.42 815.508C1717.42 829.371 1720.55 840.452 1726.81 848.751C1733.15 856.963 1742.46 861.068 1754.71 861.068Z" fill="white"/>
<path d="M685.721 881.597C696.655 887.866 709.352 891 723.812 891C737.567 891 750.131 887.424 761.506 880.272C772.968 873.12 781.432 863.099 786.899 850.208L755.422 840.672C752.336 847.294 747.927 852.371 742.196 855.903C736.553 859.346 729.808 861.068 721.96 861.068C709.792 861.068 700.534 857.095 694.186 849.148C689.2 842.908 686.172 834.652 685.102 824.382H756.876H772.88H788.486C789.721 807.253 787.825 792.375 782.799 779.749C777.773 767.123 770.058 757.367 759.654 750.48C749.338 743.504 736.773 740.017 721.96 740.017C707.941 740.017 695.597 743.195 684.928 749.552C674.259 755.91 665.927 764.872 659.931 776.438C653.935 787.916 650.937 801.47 650.937 817.098C650.937 831.578 653.979 844.381 660.063 855.506C666.235 866.631 674.788 875.328 685.721 881.597ZM756.134 800.278H685.881C687.339 792.019 690.108 785.308 694.186 780.146C700.534 772.023 710.233 767.962 723.283 767.962C734.833 767.962 743.298 771.538 748.676 778.69C752.497 783.77 754.983 790.966 756.134 800.278Z" fill="white"/>
<path d="M844.845 881.597C855.778 887.866 868.475 891 882.935 891C896.69 891 909.255 887.424 920.629 880.272C932.091 873.12 940.556 863.099 946.023 850.208L914.545 840.672C911.459 847.294 907.05 852.371 901.319 855.903C895.676 859.346 888.931 861.068 881.084 861.068C868.916 861.068 859.658 857.095 853.309 849.148C848.324 842.908 845.296 834.652 844.226 824.382H916H932.003H947.61C948.844 807.253 946.948 792.375 941.923 779.749C936.897 767.123 929.182 757.367 918.777 750.48C908.461 743.504 895.897 740.017 881.084 740.017C867.064 740.017 854.72 743.195 844.051 749.552C833.382 755.91 825.05 764.872 819.054 776.438C813.059 787.916 810.061 801.47 810.061 817.098C810.061 831.578 813.103 844.381 819.187 855.506C825.359 866.631 833.911 875.328 844.845 881.597ZM915.257 800.278H845.004C846.463 792.019 849.231 785.308 853.309 780.146C859.658 772.023 869.357 767.962 882.406 767.962C893.957 767.962 902.421 771.538 907.8 778.69C911.62 783.77 914.106 790.966 915.257 800.278Z" fill="white"/>
<path d="M1410.04 881.597C1420.98 887.866 1433.67 891 1448.13 891C1461.89 891 1474.45 887.424 1485.83 880.272C1497.29 873.12 1505.75 863.099 1511.22 850.208L1479.74 840.672C1476.66 847.294 1472.25 852.371 1466.52 855.903C1460.87 859.346 1454.13 861.068 1446.28 861.068C1434.11 861.068 1424.86 857.095 1418.51 849.148C1413.52 842.908 1410.49 834.652 1409.42 824.382H1481.2H1497.2H1512.81C1514.04 807.253 1512.15 792.375 1507.12 779.749C1502.09 767.123 1494.38 757.367 1483.98 750.48C1473.66 743.504 1461.09 740.017 1446.28 740.017C1432.26 740.017 1419.92 743.195 1409.25 749.552C1398.58 755.91 1390.25 764.872 1384.25 776.438C1378.26 787.916 1375.26 801.47 1375.26 817.098C1375.26 831.578 1378.3 844.381 1384.38 855.506C1390.56 866.631 1399.11 875.328 1410.04 881.597ZM1480.46 800.278H1410.2C1411.66 792.019 1414.43 785.308 1418.51 780.146C1424.86 772.023 1434.55 767.962 1447.6 767.962C1459.15 767.962 1467.62 771.538 1473 778.69C1476.82 783.77 1479.3 790.966 1480.46 800.278Z" fill="white"/>
<rect y="594" width="397" height="397" rx="100" fill="white"/>
<path d="M204.615 670.176L257.529 700.726L263.029 703.901V772.946L315.73 803.374L321.23 806.55V880.352L315.73 883.527L262.816 914.077L257.316 917.253L251.816 914.077L199.115 883.65L146.415 914.077L140.915 917.253L135.415 914.077L82.5 883.527L77 880.352V806.55L82.5 803.374L135.2 772.948V703.901L140.7 700.726L193.615 670.176L199.115 667L204.615 670.176ZM88 812.9V874.001L140.915 904.552L193.401 874.247V812.653L140.915 782.351L88 812.9ZM204.829 812.653V874.247L257.316 904.552L310.23 874.001V812.9L257.316 782.351L204.829 812.653ZM146.2 710.252V771.353L199.115 801.903L252.029 771.353V710.252L199.115 679.702L146.2 710.252Z" fill="#4338CA"/>
</svg>
