<svg width="687" height="127" viewBox="0 0 687 127" fill="none" xmlns="http://www.w3.org/2000/svg">
<path d="M233.436 58.8027L215.056 59.9345C214.742 58.3625 214.066 56.9477 213.029 55.6901C211.992 54.401 210.626 53.3792 208.929 52.6246C207.264 51.8386 205.269 51.4456 202.944 51.4456C199.833 51.4456 197.209 52.1059 195.073 53.4264C192.936 54.7154 191.868 56.4447 191.868 58.614C191.868 60.3433 192.559 61.8053 193.942 63C195.324 64.1947 197.697 65.1537 201.058 65.8768L214.16 68.5178C221.198 69.9641 226.446 72.2907 229.902 75.4976C233.358 78.7045 235.086 82.9175 235.086 88.1367C235.086 92.8842 233.688 97.05 230.891 100.634C228.127 104.218 224.325 107.017 219.486 109.029C214.679 111.01 209.133 112 202.849 112C193.266 112 185.631 110.004 179.944 106.011C174.289 101.986 170.974 96.5156 170 89.5986L189.747 88.5611C190.344 91.4851 191.79 93.7174 194.083 95.2579C196.377 96.7671 199.315 97.5217 202.896 97.5217C206.415 97.5217 209.243 96.8457 211.38 95.4937C213.548 94.1104 214.647 92.334 214.679 90.1646C214.647 88.341 213.878 86.8476 212.37 85.6843C210.861 84.4896 208.536 83.5778 205.394 82.949L192.858 80.4495C185.788 79.0346 180.526 76.5823 177.069 73.0924C173.645 69.6025 171.932 65.1537 171.932 59.7459C171.932 55.0927 173.189 51.0841 175.703 47.7199C178.248 44.3558 181.814 41.762 186.401 39.9384C191.02 38.1149 196.424 37.2031 202.614 37.2031C211.757 37.2031 218.952 39.1367 224.199 43.0038C229.478 46.871 232.557 52.1373 233.436 58.8027Z" fill="#FF6D56"/>
<path d="M294.151 79.7421V38.1463H314.228V110.585H294.952V97.4273H294.198C292.564 101.672 289.847 105.083 286.045 107.661C282.274 110.239 277.672 111.528 272.236 111.528C267.397 111.528 263.14 110.428 259.464 108.227C255.788 106.026 252.913 102.898 250.839 98.8422C248.797 94.7863 247.76 89.9288 247.729 84.2695V38.1463H267.806V80.6853C267.837 84.9612 268.984 88.341 271.246 90.8248C273.508 93.3086 276.54 94.5505 280.342 94.5505C282.762 94.5505 285.024 94.0003 287.129 92.8999C289.234 91.768 290.931 90.1017 292.219 87.9009C293.538 85.7 294.183 82.9804 294.151 79.7421Z" fill="#FF6D56"/>
<path d="M330.665 110.585V14H350.742V50.3138H351.355C352.234 48.3645 353.507 46.3837 355.172 44.3715C356.869 42.3279 359.068 40.6301 361.77 39.2782C364.504 37.8948 367.897 37.2031 371.95 37.2031C377.229 37.2031 382.099 38.5865 386.561 41.3532C391.022 44.0885 394.588 48.223 397.259 53.7565C399.93 59.2586 401.265 66.1598 401.265 74.4601C401.265 82.5403 399.961 89.3628 397.353 94.9278C394.777 100.461 391.258 104.659 386.796 107.52C382.366 110.349 377.402 111.764 371.903 111.764C368.007 111.764 364.692 111.12 361.959 109.831C359.257 108.542 357.042 106.922 355.314 104.973C353.586 102.992 352.266 100.996 351.355 98.9836H350.459V110.585H330.665ZM350.318 74.3657C350.318 78.6731 350.915 82.4302 352.109 85.6371C353.303 88.8441 355.031 91.3436 357.293 93.1357C359.555 94.8964 362.304 95.7767 365.541 95.7767C368.808 95.7767 371.573 94.8807 373.836 93.0885C376.098 91.265 377.81 88.7498 378.973 85.5428C380.167 82.3045 380.764 78.5788 380.764 74.3657C380.764 70.1841 380.182 66.5056 379.02 63.3301C377.857 60.1546 376.145 57.6708 373.883 55.8787C371.62 54.0866 368.84 53.1906 365.541 53.1906C362.273 53.1906 359.508 54.0552 357.246 55.7844C355.015 57.5136 353.303 59.966 352.109 63.1415C350.915 66.317 350.318 70.0584 350.318 74.3657Z" fill="#FF6D56"/>
<path d="M414.285 110.585V98.6063L449.726 54.6997V54.1809H415.51V38.1463H473.903V51.2098L440.63 94.0318V94.5505H475.129V110.585H414.285Z" fill="#FF6D56"/>
<path d="M567.727 110.585V38.1463H587.191V50.7854H587.945C589.265 46.2894 591.48 42.8938 594.591 40.5987C597.701 38.2721 601.283 37.1088 605.336 37.1088C606.342 37.1088 607.426 37.1716 608.588 37.2974C609.751 37.4232 610.772 37.5961 611.652 37.8162V55.6429C610.709 55.36 609.405 55.1084 607.74 54.8884C606.075 54.6683 604.551 54.5582 603.168 54.5582C600.215 54.5582 597.575 55.2028 595.25 56.4918C592.957 57.7494 591.134 59.5101 589.783 61.7738C588.464 64.0375 587.804 66.6471 587.804 69.6025V110.585H567.727Z" fill="#FF6D56"/>
<path d="M651.37 112C644.049 112 637.718 110.444 632.377 107.331C627.067 104.187 622.967 99.8168 620.076 94.2204C617.185 88.5926 615.74 82.0687 615.74 74.6487C615.74 67.1659 617.185 60.6262 620.076 55.0298C622.967 49.402 627.067 45.0318 632.377 41.9191C637.718 38.7751 644.049 37.2031 651.37 37.2031C658.691 37.2031 665.006 38.7751 670.316 41.9191C675.657 45.0318 679.774 49.402 682.664 55.0298C685.555 60.6262 687 67.1659 687 74.6487C687 82.0687 685.555 88.5926 682.664 94.2204C679.774 99.8168 675.657 104.187 670.316 107.331C665.006 110.444 658.691 112 651.37 112ZM651.464 96.437C654.795 96.437 657.575 95.4937 659.806 93.6073C662.037 91.6894 663.718 89.0799 664.849 85.7786C666.012 82.4774 666.593 78.7202 666.593 74.5072C666.593 70.2942 666.012 66.5371 664.849 63.2358C663.718 59.9346 662.037 57.325 659.806 55.4071C657.575 53.4893 654.795 52.5303 651.464 52.5303C648.102 52.5303 645.275 53.4893 642.981 55.4071C640.719 57.325 639.006 59.9346 637.844 63.2358C636.713 66.5371 636.147 70.2942 636.147 74.5072C636.147 78.7202 636.713 82.4774 637.844 85.7786C639.006 89.0799 640.719 91.6894 642.981 93.6073C645.275 95.4937 648.102 96.437 651.464 96.437Z" fill="#FF6D56"/>
<path d="M502.169 107.473C507.542 110.491 513.952 112 521.398 112C527.368 112 532.631 111.088 537.187 109.265C541.774 107.41 545.513 104.832 548.404 101.53C551.326 98.1976 553.258 94.299 554.201 89.8345L535.631 88.6083C534.94 90.4318 533.935 91.9724 532.615 93.23C531.296 94.4876 529.709 95.4309 527.855 96.0597C526.001 96.6885 523.959 97.0029 521.728 97.0029C518.366 97.0029 515.46 96.2955 513.009 94.8807C510.559 93.4658 508.658 91.4536 507.307 88.8441C505.987 86.2345 505.327 83.1376 505.327 79.5534V79.5063H554.625V73.9885C554.625 67.8261 553.761 62.4498 552.033 57.8595C550.305 53.2377 547.885 49.402 544.775 46.3523C541.696 43.3025 538.082 41.0231 533.935 39.514C529.819 37.9734 525.373 37.2031 520.597 37.2031C513.496 37.2031 507.307 38.7751 502.028 41.9191C496.781 45.0632 492.712 49.4491 489.822 55.077C486.931 60.7048 485.486 67.2445 485.486 74.6959C485.486 82.3359 486.931 88.9541 489.822 94.5505C492.712 100.115 496.828 104.423 502.169 107.473ZM505.346 67.0558C505.467 64.4546 506.136 62.0809 507.354 59.9345C508.673 57.5765 510.496 55.7058 512.821 54.3224C515.177 52.9076 517.879 52.2002 520.927 52.2002C523.849 52.2002 526.41 52.8447 528.609 54.1338C530.84 55.3914 532.584 57.1363 533.841 59.3686C535.097 61.6009 535.726 64.1633 535.726 67.0558H505.346Z" fill="#FF6D56"/>
<path fill-rule="evenodd" clip-rule="evenodd" d="M52.5656 66.75C53.1611 68.3533 54.0537 69.7444 55.2434 70.9233C56.4223 72.1129 57.8134 73.0055 59.4167 73.601V104.566C57.2535 105.369 55.4766 106.713 54.0859 108.598C52.6953 110.484 52 112.631 52 115.042C52 118.132 53.0816 120.759 55.2448 122.922C57.408 125.085 60.0347 126.167 63.125 126.167C65.5354 126.167 67.6832 125.471 69.5682 124.081C71.4533 122.69 72.7976 120.913 73.601 118.75H104.566C105.369 120.913 106.713 122.69 108.598 124.081C110.484 125.471 112.631 126.167 115.042 126.167C118.132 126.167 120.759 125.085 122.922 122.922C125.085 120.759 126.167 118.132 126.167 115.042C126.167 112.631 125.471 110.484 124.081 108.598C122.69 106.713 120.913 105.369 118.75 104.566V73.601C120.913 72.8594 122.69 71.546 124.081 69.6609C125.471 67.7759 126.167 65.5972 126.167 63.125C126.167 60.0347 125.085 57.408 122.922 55.2448C120.759 53.0816 118.132 52 115.042 52C112.569 52 110.391 52.6953 108.506 54.0859C106.621 55.4766 105.307 57.2535 104.566 59.4167H73.601C73.0055 57.8134 72.1129 56.4223 70.9233 55.2434C69.7444 54.0537 68.3533 53.1611 66.75 52.5656V21.601C68.9132 20.8594 70.6901 19.546 72.0807 17.6609C73.4714 15.7759 74.1667 13.5972 74.1667 11.125C74.1667 8.03472 73.0851 5.40799 70.9219 3.24479C68.7587 1.0816 66.1319 0 63.0417 0C60.5694 0 58.3908 0.695312 56.5057 2.08594C54.6207 3.47656 53.3073 5.25347 52.5656 7.41667L21.601 7.41667C20.7976 5.25347 19.4533 3.47656 17.5682 2.08594C15.6832 0.695312 13.5354 0 11.125 0C8.03472 0 5.40799 1.0816 3.24479 3.24479C1.0816 5.40799 0 8.03472 0 11.125C0 13.5354 0.695313 15.6832 2.08594 17.5682C3.47656 19.4533 5.25347 20.7976 7.41667 21.601L7.41667 52.5656C5.25347 53.3691 3.47656 54.7134 2.08594 56.5984C0.695313 58.4835 0 60.6312 0 63.0417C0 66.1319 1.0816 68.7587 3.24479 70.9219C5.40799 73.0851 8.03472 74.1667 11.125 74.1667C13.5354 74.1667 15.6832 73.4714 17.5682 72.0807C19.4533 70.6901 20.7976 68.9132 21.601 66.75H52.5656ZM19.0052 55.1615C20.1795 56.3358 21.0448 57.7264 21.601 59.3333H52.5656C53.1219 57.7264 53.9871 56.3358 55.1615 55.1615C56.3358 53.9872 57.7264 53.1219 59.3333 52.5656V21.601C57.7264 21.0448 56.3358 20.1795 55.1615 19.0052C53.9871 17.8309 53.1219 16.4403 52.5656 14.8333L21.601 14.8333C21.0448 16.4403 20.1795 17.8309 19.0052 19.0052C17.8309 20.1795 16.4403 21.0448 14.8333 21.601L14.8333 52.5656C16.4403 53.1219 17.8309 53.9872 19.0052 55.1615ZM104.566 111.333H73.601C73.0448 109.726 72.1795 108.336 71.0052 107.161C69.8309 105.987 68.4403 105.122 66.8333 104.566V73.601C68.4403 73.0448 69.8309 72.1795 71.0052 71.0052C72.1795 69.8309 73.0448 68.4403 73.601 66.8333H104.566C105.122 68.4403 105.987 69.8309 107.161 71.0052C108.336 72.1795 109.726 73.0448 111.333 73.601V104.566C109.726 105.122 108.336 105.987 107.161 107.161C105.987 108.336 105.122 109.726 104.566 111.333Z" fill="#FF6D56"/>
</svg>
