<svg width="1440" height="1024" viewBox="0 0 1440 1024" fill="none" xmlns="http://www.w3.org/2000/svg" xmlns:xlink="http://www.w3.org/1999/xlink">
<rect width="1440" height="1024" fill="#FAFBFD"/>
<rect width="1440" height="1024" fill="url(#pattern0_125_3)" fill-opacity="0.1"/>
<defs>
<pattern id="pattern0_125_3" patternUnits="userSpaceOnUse" patternTransform="matrix(223.667 0 0 405.02 664.083 461.372)" preserveAspectRatio="none" viewBox="0 0 508.334 920.5" width="1" height="1">
<use xlink:href="#pattern0_125_3_inner" transform="translate(-508.334 0)"/>
<g id="pattern0_125_3_inner">
<path fill-rule="evenodd" clip-rule="evenodd" d="M52.5656 66.75C53.1611 68.3533 54.0537 69.7444 55.2434 70.9233C56.4223 72.1129 57.8134 73.0055 59.4167 73.601V104.566C57.2535 105.369 55.4766 106.713 54.0859 108.598C52.6953 110.484 52 112.631 52 115.042C52 118.132 53.0816 120.759 55.2448 122.922C57.408 125.085 60.0347 126.167 63.125 126.167C65.5354 126.167 67.6832 125.471 69.5682 124.081C71.4533 122.69 72.7976 120.913 73.601 118.75H104.566C105.369 120.913 106.713 122.69 108.598 124.081C110.484 125.471 112.631 126.167 115.042 126.167C118.132 126.167 120.759 125.085 122.922 122.922C125.085 120.759 126.167 118.132 126.167 115.042C126.167 112.631 125.471 110.484 124.081 108.598C122.69 106.713 120.913 105.369 118.75 104.566V73.601C120.913 72.8594 122.69 71.546 124.081 69.6609C125.471 67.7759 126.167 65.5972 126.167 63.125C126.167 60.0347 125.085 57.408 122.922 55.2448C120.759 53.0816 118.132 52 115.042 52C112.569 52 110.391 52.6953 108.506 54.0859C106.621 55.4766 105.307 57.2535 104.566 59.4167H73.601C73.0055 57.8134 72.1129 56.4223 70.9233 55.2434C69.7444 54.0537 68.3533 53.1611 66.75 52.5656V21.601C68.9132 20.8594 70.6901 19.546 72.0807 17.6609C73.4714 15.7759 74.1667 13.5972 74.1667 11.125C74.1667 8.03472 73.0851 5.40799 70.9219 3.24479C68.7587 1.0816 66.1319 0 63.0417 0C60.5694 0 58.3908 0.695312 56.5057 2.08594C54.6207 3.47656 53.3073 5.25347 52.5656 7.41667L21.601 7.41667C20.7976 5.25347 19.4533 3.47656 17.5682 2.08594C15.6832 0.695312 13.5354 0 11.125 0C8.03472 0 5.40799 1.0816 3.24479 3.24479C1.0816 5.40799 0 8.03472 0 11.125C0 13.5354 0.695313 15.6832 2.08594 17.5682C3.47656 19.4533 5.25347 20.7976 7.41667 21.601L7.41667 52.5656C5.25347 53.3691 3.47656 54.7134 2.08594 56.5984C0.695313 58.4835 0 60.6312 0 63.0417C0 66.1319 1.0816 68.7587 3.24479 70.9219C5.40799 73.0851 8.03472 74.1667 11.125 74.1667C13.5354 74.1667 15.6832 73.4714 17.5682 72.0807C19.4533 70.6901 20.7976 68.9132 21.601 66.75H52.5656ZM19.0052 55.1615C20.1795 56.3358 21.0448 57.7264 21.601 59.3333H52.5656C53.1219 57.7264 53.9871 56.3358 55.1615 55.1615C56.3358 53.9872 57.7264 53.1219 59.3333 52.5656V21.601C57.7264 21.0448 56.3358 20.1795 55.1615 19.0052C53.9871 17.8309 53.1219 16.4403 52.5656 14.8333L21.601 14.8333C21.0448 16.4403 20.1795 17.8309 19.0052 19.0052C17.8309 20.1795 16.4403 21.0448 14.8333 21.601L14.8333 52.5656C16.4403 53.1219 17.8309 53.9872 19.0052 55.1615ZM104.566 111.333H73.601C73.0448 109.726 72.1795 108.336 71.0052 107.161C69.8309 105.987 68.4403 105.122 66.8333 104.566V73.601C68.4403 73.0448 69.8309 72.1795 71.0052 71.0052C72.1795 69.8309 73.0448 68.4403 73.601 66.8333H104.566C105.122 68.4403 105.987 69.8309 107.161 71.0052C108.336 72.1795 109.726 73.0448 111.333 73.601V104.566C109.726 105.122 108.336 105.987 107.161 107.161C105.987 108.336 105.122 109.726 104.566 111.333Z" fill="#828392"/>
<path d="M243.042 208C246.132 208 248.759 209.082 250.922 211.245C253.056 213.379 254.135 215.964 254.164 219H254.167C254.167 219.021 254.165 219.042 254.165 219.062C254.165 219.083 254.167 219.104 254.167 219.125H254.164C254.135 222.161 253.056 224.746 250.922 226.88C248.759 229.043 246.132 230.125 243.042 230.125C240.57 230.125 238.391 229.43 236.506 228.039C234.621 226.648 233.307 224.871 232.565 222.708H201.601C200.797 224.871 199.453 226.648 197.568 228.039C195.683 229.43 193.535 230.125 191.125 230.125C188.035 230.125 185.408 229.043 183.245 226.88C181.111 224.746 180.032 222.161 180.003 219.125H180C180 219.104 180.001 219.083 180.001 219.062C180.001 219.042 180 219.021 180 219H180.003C180.032 215.964 181.111 213.379 183.245 211.245C185.408 209.082 188.035 208 191.125 208C193.535 208 195.683 208.695 197.568 210.086C199.453 211.477 200.797 213.254 201.601 215.417H232.565C233.307 213.254 234.621 211.477 236.506 210.086C238.391 208.695 240.57 208 243.042 208Z" fill="#FF6D56"/>
</g>
<use xlink:href="#pattern0_125_3_inner" transform="translate(-254.167 460.25)"/>
<use xlink:href="#pattern0_125_3_inner" transform="translate(254.167 460.25)"/>
</pattern></defs>
</svg>
